# xmcd
#
# Track frame offsets:
#	150
#	16080
#	35825
#	51626
#	69660
#	86152
#	105596
#	121287
#	133663
#	147938
#	160145
#	174276
#	190598
#	204260
#	217930
#	232487
#	247254
#	264036
#	278061
#	293048
#
# Disc length: 4143 seconds
#
# Revision: 1
# Processed by: cddbd v1.5.2PL0 Copyright (c) Steve Scherf et al.
# Submitted via: dBpowerAMP V4.0
#
DISCID=29102d14
DTITLE=Various Artist - ERG Nu Country Traxx Vol. 244 Can
DYEAR=2014
DGENRE=Country
TTITLE0=Brad Paisley - Perfect Storm
TTITLE1=Eric Church - Talladega
TTITLE2=Dean Brody - Mountian Man
TTITLE3=Josh Turner - Lay Low
TTITLE4=Taylor Swift - Shake It Off
TTITLE5=Road Hammers, The - I've Been Everywhere
TTITLE6=Lee Brice - Drinking Class
TTITLE7=High Valley - County Line
TTITLE8=Easton Corbin - Baby Be My Love Song
TTITLE9=Natalie Stovall And The Drive - Mason Jar
TTITLE10=Lindsay Ell - Shut Me Up
TTITLE11=Rachel Holder - Shining Now
TTITLE12=Doc Walker - That's How I Like It
TTITLE13=Daniel Lee - Hell Yeah
TTITLE14=Sarabeth - Nowhere With You
TTITLE15=Jon Pardi - When I've Been Drinking
TTITLE16=Trisha Yearwood ft. Kelly Clarkson - Prize Fighter
TTITLE17=Joe Nichols - Hard To Be Cool
TTITLE18=Reklaws, The - Seeing Stars
TTITLE19=Andrew Hyatt - Love Drunk
EXTD=
EXTT0=
EXTT1=
EXTT2=
EXTT3=
EXTT4=
EXTT5=
EXTT6=
EXTT7=
EXTT8=
EXTT9=
EXTT10=
EXTT11=
EXTT12=
EXTT13=
EXTT14=
EXTT15=
EXTT16=
EXTT17=
EXTT18=
EXTT19=
PLAYORDER=
